<?xml version="1.0" encoding="UTF-8"?>
<svg width="500px" height="500px" viewBox="0 0 500 500" version="1.1" xmlns="http://www.w3.org/2000/svg" xmlns:xlink="http://www.w3.org/1999/xlink">
    <!-- Generator: Sketch 46.2 (44496) - http://www.bohemiancoding.com/sketch -->
    <title>auction</title>
    <desc>Created with Sketch.</desc>
    <defs></defs>
    <g id="Icons-export" stroke="none" stroke-width="1" fill="none" fill-rule="evenodd">
        <g id="auction" fill="#333333">
            <path d="M474.315783,222.008111 C462.619442,210.31177 443.905298,210.371243 432.327903,221.948638 L425.250626,229.025915 L369.187488,172.942953 L390.340023,151.790419 C401.857945,140.272497 401.818296,121.479055 390.201253,109.862012 C378.504912,98.1656711 359.830416,98.1854954 348.272846,109.743066 L327.140135,130.8956 L271.057174,74.8126386 L278.134451,67.7551857 C289.573076,56.3165612 289.692021,37.384349 278.074978,25.7673057 C266.378638,14.0709651 247.644668,14.1106137 236.067274,25.6880084 L109.786445,151.988662 C98.34782,163.407462 98.2486985,182.359499 109.845918,193.976542 C121.542258,205.672882 140.256403,205.613409 151.833798,194.036015 L158.911075,186.958738 L214.974212,243.041699 L25.6322657,432.40347 C14.0945196,443.921392 14.1341683,462.714834 25.7512116,474.331877 C37.4277278,486.028218 56.1220483,485.988569 67.6796187,474.450823 L257.041389,285.089052 L313.104527,341.152189 L306.047074,348.229467 C294.608449,359.668091 294.489503,378.600303 306.106547,390.217347 C317.783063,401.913687 336.517032,401.874039 348.094427,390.27682 L474.375256,263.995991 C485.81388,252.557366 485.932826,233.625154 474.315783,222.008111"></path>
        </g>
    </g>
</svg>