<?xml version="1.0" encoding="UTF-8"?>
<svg width="500px" height="500px" viewBox="0 0 500 500" version="1.1" xmlns="http://www.w3.org/2000/svg" xmlns:xlink="http://www.w3.org/1999/xlink">
    <!-- Generator: Sketch 46.2 (44496) - http://www.bohemiancoding.com/sketch -->
    <title>auto_truck_marine</title>
    <desc>Created with Sketch.</desc>
    <defs></defs>
    <g id="Icons-export" stroke="none" stroke-width="1" fill="none" fill-rule="evenodd">
        <g id="auto_truck_marine">
            <g id="car" transform="translate(13.000000, 77.000000)">
                <path d="M58.8968036,118.835456 C59.2048359,118.374046 59.8964423,118 60.4574906,118 L413.542509,118 C414.096421,118 414.797404,118.377401 415.103196,118.835456 L452.893191,175.442082 C453.504465,176.357725 454,178.000231 454,179.101987 L454,294.295981 C454,294.850485 453.55929,295.41079 453.024117,295.541973 C453.024117,295.541973 377.75952,315 237,315 C96.2404801,315 20.9470174,295.534964 20.9470174,295.534964 C20.4239941,295.405197 20,294.848193 20,294.295981 L20,179.101987 C20,177.99632 20.4988512,176.352758 21.1068088,175.442082 L58.8968036,118.835456 Z" id="Body" stroke="#333333" stroke-width="30" stroke-linecap="round" stroke-linejoin="round"></path>
                <path d="M377.888812,239.65896 C361.802456,242.495419 345.709984,227.486617 341.94527,206.135863 C338.180556,184.785108 348.169221,165.177498 364.255576,162.34104 C380.341932,159.504581 396.434404,174.513383 400.199118,195.864137 C403.963832,217.214892 393.975168,236.822502 377.888812,239.65896 Z M95.1111881,239.65896 C79.0248323,236.822502 69.036168,217.214892 72.800882,195.864137 C76.5655961,174.513383 92.6580677,159.504581 108.744424,162.34104 C124.830779,165.177498 134.819444,184.785108 131.05473,206.135863 C127.290016,227.486617 111.197544,242.495419 95.1111881,239.65896 Z" id="Headlights" fill="#333333"></path>
                <path d="M396.070562,291.050772 L424.910562,283.80785 L424.910562,283.80785 C438.30183,280.444746 451.883932,288.574179 455.247036,301.965447 C455.747108,303.956643 456,306.001856 456,308.054886 L456,350 C456,363.807119 444.807119,375 431,375 L402.16,375 C388.352881,375 377.16,363.807119 377.16,350 L377.16,315.297808 L377.16,315.297808 C377.16,303.836127 384.95409,293.84258 396.070562,291.050772 L396.070562,291.050772 Z M54.2211254,294.193259 L83.0611254,308.679104 L83.0611254,308.679104 C91.5083006,312.921977 96.84,321.566475 96.84,331.019345 L96.84,350 C96.84,363.807119 85.6471187,375 71.84,375 L43,375 C29.1928813,375 18,363.807119 18,350 L18,316.5335 L18,316.5335 C18,302.726381 29.1928813,291.5335 43,291.5335 C46.8965412,291.5335 50.7391387,292.444316 54.2211254,294.193259 L54.2211254,294.193259 Z" id="Wheels" fill="#333333"></path>
                <path d="M78.5270245,20.6399062 C78.6348292,20.1024009 79.1529245,19.5608546 79.6842615,19.4321001 C79.6842615,19.4321001 157.611111,6.55031585e-15 236.5,0 C315.388889,0 393.315738,19.4321001 393.315738,19.4321001 C393.847058,19.5616476 394.365708,20.1050787 394.472976,20.6399062 L414,118 L59,118 L78.5270245,20.6399062 Z" id="Windscreen" stroke="#333333" stroke-width="30"></path>
                <path d="M473,108.5 C473,128.166667 443.4375,138 413.875,138 C413.875,108.5 423.729167,79 443.4375,79 C463.145833,79 473,88.8333333 473,108.5 Z M0,108.5 C0,88.8333333 9.85416667,79 29.5625,79 C49.2708333,79 59.125,108.5 59.125,138 C29.5625,138 0,128.166667 0,108.5 Z" id="Mirros" fill="#333333"></path>
            </g>
        </g>
    </g>
</svg>