<?xml version="1.0" encoding="UTF-8"?>
<svg width="500px" height="500px" viewBox="0 0 500 500" version="1.1" xmlns="http://www.w3.org/2000/svg" xmlns:xlink="http://www.w3.org/1999/xlink">
    <!-- Generator: Sketch 46.2 (44496) - http://www.bohemiancoding.com/sketch -->
    <title>grid</title>
    <desc>Created with Sketch.</desc>
    <defs></defs>
    <g id="Icons-export" stroke="none" stroke-width="1" fill="none" fill-rule="evenodd">
        <g id="grid" stroke="#353535" stroke-width="30">
            <g transform="translate(50.000000, 50.000000)">
                <rect id="Box" x="-15" y="-15" width="430" height="430" rx="30"></rect>
                <path d="M80,65 C71.7157288,65 65,71.7157288 65,80 L65,145 C65,153.284271 71.7157288,160 80,160 L145,160 C153.284271,160 160,153.284271 160,145 L160,80 C160,71.7157288 153.284271,65 145,65 L80,65 Z M255,65 C246.715729,65 240,71.7157288 240,80 L240,145 C240,153.284271 246.715729,160 255,160 L320,160 C328.284271,160 335,153.284271 335,145 L335,80 C335,71.7157288 328.284271,65 320,65 L255,65 Z M255,240 C246.715729,240 240,246.715729 240,255 L240,320 C240,328.284271 246.715729,335 255,335 L320,335 C328.284271,335 335,328.284271 335,320 L335,255 C335,246.715729 328.284271,240 320,240 L255,240 Z M80,240 C71.7157288,240 65,246.715729 65,255 L65,320 C65,328.284271 71.7157288,335 80,335 L145,335 C153.284271,335 160,328.284271 160,320 L160,255 C160,246.715729 153.284271,240 145,240 L80,240 Z" id="Items"></path>
            </g>
        </g>
    </g>
</svg>