<?xml version="1.0" encoding="UTF-8"?>
<svg width="500px" height="500px" viewBox="0 0 500 500" version="1.1" xmlns="http://www.w3.org/2000/svg" xmlns:xlink="http://www.w3.org/1999/xlink">
    <!-- Generator: Sketch 46.2 (44496) - http://www.bohemiancoding.com/sketch -->
    <title>home_garden</title>
    <desc>Created with Sketch.</desc>
    <defs></defs>
    <g id="Icons-export" stroke="none" stroke-width="1" fill="none" fill-rule="evenodd" stroke-linecap="round" stroke-linejoin="round">
        <g id="home_garden" stroke="#333333" stroke-width="30">
            <g id="home" transform="translate(25.606349, 56.000000)">
                <path d="M0,183.586147 L224.383069,0 C224.383069,0 448.766115,183.586158 448.766138,183.586147" id="Roof"></path>
                <path d="M40.7969216,163.187686 C40.7969216,163.187686 40.7969216,163.631288 40.7969216,164.189344 L40.7969216,386.852191 C40.7969216,387.405391 41.2453877,387.853849 41.8045049,387.853849 L182.578564,387.853842 C183.135037,387.853842 183.586147,387.404487 183.586147,386.863821 L183.586147,245.771551 C183.586147,245.224777 184.025144,244.78153 184.588358,244.78153 L264.17778,244.78153 C264.731285,244.78153 265.17999,245.230885 265.17999,245.771551 L265.17999,386.863821 C265.17999,387.410595 265.628457,387.853842 266.187575,387.853842 L406.961755,387.853849 C407.518228,387.853849 407.969339,387.410248 407.969339,386.852191 L407.969333,163.187686" id="Walls"></path>
            </g>
        </g>
    </g>
</svg>