<?xml version="1.0" encoding="UTF-8"?>
<svg width="500px" height="500px" viewBox="0 0 500 500" version="1.1" xmlns="http://www.w3.org/2000/svg" xmlns:xlink="http://www.w3.org/1999/xlink">
    <!-- Generator: Sketch 46.2 (44496) - http://www.bohemiancoding.com/sketch -->
    <title>manufacturing_engineering</title>
    <desc>Created with Sketch.</desc>
    <defs></defs>
    <g id="Icons-export" stroke="none" stroke-width="1" fill="none" fill-rule="evenodd" stroke-linejoin="round">
        <g id="manufacturing_engineering" stroke="#333333" stroke-width="30">
            <g id="crog" transform="translate(32.000000, 32.000000)">
                <path d="M123.324507,67.4630709 C139.904904,56.9930242 158.329093,49.1777646 178,44.6143659 L178,0.995898971 C178,0.445879157 178.444283,0 178.998852,0 L256.001148,0 C256.552799,0 257,0.441384315 257,0.995898971 L257,44.1625592 C276.935404,48.5450849 295.621723,56.2598503 312.445332,66.6932321 L342.866861,36.2717034 C343.255784,35.8827806 343.885223,35.8816521 344.277363,36.2737914 L398.726209,90.7226372 C399.116285,91.1127132 399.120398,91.741038 398.728297,92.1331391 L368.758559,122.102877 C379.620065,138.998183 387.709851,157.844651 392.385634,178 L435.004101,178 C435.554121,178 436,178.444283 436,178.998852 L436,256.001148 C436,256.552799 435.558616,257 435.004101,257 L392.837441,257 C388.294311,277.665965 380.170238,296.989618 369.148807,314.287372 L398.728297,343.866861 C399.117219,344.255784 399.118348,344.885223 398.726209,345.277363 L344.277363,399.726209 C343.887287,400.116285 343.258962,400.120398 342.866861,399.728297 L313.061482,369.922918 C296.078402,380.551032 277.179107,388.40134 257,392.837441 L257,435.004101 C257,435.554121 256.555717,436 256.001148,436 L178.998852,436 C178.447201,436 178,435.558616 178,435.004101 L178,392.385634 C158.086785,387.766023 139.45119,379.813944 122.712628,369.148807 L92.1331391,399.728297 C91.7442164,400.117219 91.1147765,400.118348 90.7226372,399.726209 L36.2737914,345.277363 C35.8837155,344.887287 35.8796023,344.258962 36.2717034,343.866861 L67.077082,313.061482 C56.4489683,296.078402 48.5986596,277.179107 44.1625592,257 L0.995898971,257 C0.445879157,257 7.02381386e-15,256.555717 6.92194124e-15,256.001148 L-7.2231511e-15,178.998852 C-7.32448768e-15,178.447201 0.441384315,178 0.995898971,178 L44.6143659,178 C49.1777646,158.329093 56.9930242,139.904904 67.4630709,123.324507 L36.2717034,92.1331391 C35.8827806,91.7442164 35.8816521,91.1147765 36.2737914,90.7226372 L90.7226372,36.2737914 C91.1127132,35.8837155 91.741038,35.8796023 92.1331391,36.2717034 L123.324507,67.4630709 Z M218.5,298 C262.406638,298 298,262.406638 298,218.5 C298,174.593362 262.406638,139 218.5,139 C174.593362,139 139,174.593362 139,218.5 C139,262.406638 174.593362,298 218.5,298 Z" id="Combined-Shape"></path>
            </g>
        </g>
    </g>
</svg>