<?xml version="1.0" encoding="UTF-8"?>
<svg width="500px" height="500px" viewBox="0 0 500 500" version="1.1" xmlns="http://www.w3.org/2000/svg" xmlns:xlink="http://www.w3.org/1999/xlink">
    <!-- Generator: Sketch 46.2 (44496) - http://www.bohemiancoding.com/sketch -->
    <title>mining_construction_agriculture</title>
    <desc>Created with Sketch.</desc>
    <defs></defs>
    <g id="Icons-export" stroke="none" stroke-width="1" fill="none" fill-rule="evenodd">
        <g id="mining_construction_agriculture" fill-rule="nonzero" fill="#333333">
            <g id="tractor" transform="translate(10.000000, 42.346154)">
                <path d="M462.160711,156.291126 C462.160711,146.412108 454.181504,138.432901 444.302487,138.432901 L417.198515,138.432901 L417.198515,85.2381909 C417.198515,60.6673008 397.187172,40.5293032 372.489628,40.5293032 C362.61061,40.5293032 354.631403,48.5085098 354.631403,58.3875275 C354.631403,68.2665451 362.61061,76.2457517 372.489628,76.2457517 C377.429136,76.2457517 381.355413,80.298682 381.355413,85.1115368 L381.355413,138.306247 L290.797751,138.306247 L254.574686,13.8052939 C252.294913,6.20604956 245.328939,0.886578508 237.476386,0.886578508 L45.4688121,0.886578508 C35.5897944,0.886578508 27.6105878,8.86578508 27.6105878,18.7448027 L27.6105878,232.156915 C10.385634,252.674875 0,278.892268 0,307.642742 C0,372.109665 52.4347861,424.671105 117.028363,424.671105 C165.410219,424.671105 206.952755,395.160707 224.810979,353.238209 L328.287356,353.238209 C330.187167,392.880933 362.990572,424.671105 403.013259,424.671105 C444.302487,424.671105 477.99247,390.981122 477.99247,349.691894 C477.99247,332.340287 472.039729,316.508527 462.160711,303.716466 L462.160711,156.291126 Z M117.028363,393.260056 C69.7451663,393.260056 31.4110491,354.792371 31.4110491,307.642742 C31.4110491,260.493114 69.8787346,222.025428 117.028363,222.025428 C164.177992,222.025428 202.645677,260.493114 202.645677,307.642742 C202.645677,354.792371 164.177992,393.260056 117.028363,393.260056 Z M330.23787,330.74432 L230.627018,330.74432 C239.946239,246.89029 198.393936,196.431092 117.082021,193.518048 C97.7039482,193.518048 71.4365265,197.317777 53.9680655,208.993209 L53.9680655,26.4274794 L230.627018,26.4274794 L270.054282,155.412429 C272.334056,163.011673 282.758864,166.334956 296.208225,166.334956 L440.383964,166.334956 L440.383964,284.159049 C395.423666,259.324043 340.131248,284.159049 330.23787,330.74432 Z M403.013259,396.745237 C376.988164,396.745237 355.833262,375.590335 355.833262,349.56524 C355.833262,323.540145 376.988164,302.385244 403.013259,302.385244 C429.038354,302.385244 450.193256,323.540145 450.193256,349.56524 C450.193256,375.590335 429.038354,396.745237 403.013259,396.745237 Z" id="Shape"></path>
            </g>
        </g>
    </g>
</svg>