<?xml version="1.0" encoding="UTF-8"?>
<svg width="500px" height="500px" viewBox="0 0 500 500" version="1.1" xmlns="http://www.w3.org/2000/svg" xmlns:xlink="http://www.w3.org/1999/xlink">
    <!-- Generator: Sketch 46.2 (44496) - http://www.bohemiancoding.com/sketch -->
    <title>office_furniture</title>
    <desc>Created with Sketch.</desc>
    <defs></defs>
    <g id="Icons-export" stroke="none" stroke-width="1" fill="none" fill-rule="evenodd">
        <g id="office_furniture" stroke="#333333" stroke-width="24" fill-rule="nonzero">
            <g id="office" transform="translate(56.000000, 37.000000)">
                <path d="M284.934315,398.258384 L284.934315,428 L251.71533,428 L251.71533,398.258384 C251.71533,395.122761 249.171325,392.580837 246.033135,392.580837 L211.065783,392.580837 L211.065783,428 L177.890508,428 L177.890508,392.580837 L142.923155,392.580837 C139.784966,392.580837 137.240961,395.122761 137.240961,398.258384 L137.240961,428 L104.065685,428 L104.065685,398.258384 C104.089773,376.825524 121.472753,359.456761 142.923155,359.432692 L177.890508,359.432692 L177.890508,324.799651 L211.109492,324.799651 L211.109492,359.432692 L246.076845,359.432692 C267.527247,359.456761 284.910227,376.825524 284.934315,398.258384 Z M29.3666787,179.061367 C14.0797289,179.398652 1.48764867,191.159904 0.12147097,206.376971 C-1.24470673,221.594038 9.05135507,235.406813 24.0341574,238.457251 L24.0341574,280.03437 C24.1298218,289.404193 31.7465001,296.956251 41.1244509,296.979667 L59.4386016,296.979667 L59.4386016,208.934003 C59.3663481,192.397576 45.9167808,179.037139 29.3666787,179.061367 Z M359.633321,179.061367 C343.049197,179.061367 329.605108,192.494462 329.605108,209.065023 L329.605108,296.979667 L347.919258,296.979667 C357.297031,296.932133 364.894194,289.360647 364.965843,279.990697 L364.965843,238.457251 C379.948645,235.406813 390.244707,221.594038 388.878529,206.376971 C387.512351,191.159904 374.920271,179.398652 359.633321,179.061367 Z M277.197788,239.505414 C222.54619,229.222542 166.45381,229.222542 111.802212,239.505414 C93.5746164,242.930244 80.371253,258.838386 80.3753039,277.37029 C80.4712638,288.228447 89.3080994,296.98009 100.175567,296.979667 L288.780724,296.979667 C299.716107,296.979667 308.580987,288.122037 308.580987,277.195597 C308.505187,258.74316 295.343453,242.936353 277.197788,239.505414 L277.197788,239.505414 Z M246.557646,0.000245157711 L142.442354,0.000245157711 C122.801895,-0.00211373937 104.106715,8.4255521 91.1113326,23.1399361 C78.1159503,37.8543201 72.0726212,57.4375214 74.5182723,76.9091807 L92.0019485,216.926243 L92.0019485,216.926243 C94.1684541,215.948326 96.3862897,215.088159 98.6457454,214.34951 L99.694766,214.000123 C102.062382,213.253829 104.470204,212.64143 106.906782,212.165838 C164.851339,201.26335 224.323498,201.26335 282.268054,212.165838 C284.704653,212.64134 287.11248,213.25374 289.480071,214.000123 L290.529091,214.34951 C292.788461,215.088399 295.006284,215.948561 297.172888,216.926243 L314.656564,76.9091807 C317.106089,57.4072533 311.040115,37.7949798 298.005723,23.0743167 C284.97133,8.35365359 266.228574,-0.0523303297 246.557646,0.000245157711 Z" id="Shape"></path>
            </g>
        </g>
    </g>
</svg>