<?xml version="1.0" encoding="UTF-8"?>
<svg width="500px" height="500px" viewBox="0 0 500 500" version="1.1" xmlns="http://www.w3.org/2000/svg" xmlns:xlink="http://www.w3.org/1999/xlink">
    <!-- Generator: Sketch 46.2 (44496) - http://www.bohemiancoding.com/sketch -->
    <title>sales</title>
    <desc>Created with Sketch.</desc>
    <defs></defs>
    <g id="Icons-export" stroke="none" stroke-width="1" fill="none" fill-rule="evenodd">
        <g id="sales">
            <g transform="translate(13.000000, 29.000000)">
                <path d="M47.7320574,282.65089 L47.7320574,377.02156 C47.7320574,403.028115 68.758134,424.077684 94.5767464,424.054191 L376.772536,423.678306 C402.638134,423.654813 423.617225,402.534766 423.617225,376.669167 L423.617225,282.65089" id="Stroke-1" stroke="#333333" stroke-width="30" stroke-linecap="round" stroke-linejoin="round"></path>
                <path d="M118.210526,153.45211 C118.210526,185.872206 144.498995,212.184167 176.942584,212.184167 C209.386172,212.184167 235.674641,185.872206 235.674641,153.45211 C235.674641,185.872206 261.96311,212.184167 294.406699,212.184167 C326.850287,212.184167 353.138756,185.872206 353.138756,153.45211 C353.138756,185.872206 379.427225,212.184167 411.870813,212.184167 C444.314402,212.184167 470.602871,185.872206 470.602871,153.45211 L430.547608,23.278378 C426.718278,10.8271818 413.186411,0.748760766 400.100909,0.748760766 L71.2483732,0.748760766 C58.2568421,0.748760766 44.6544976,10.7567033 40.8016746,23.278378 L0.746411483,153.45211 C0.746411483,185.872206 27.0348804,212.184167 59.4784689,212.184167 C91.9220574,212.184167 118.210526,153.45211 118.210526,153.45211" id="Fill-3" fill="#333333"></path>
            </g>
        </g>
    </g>
</svg>